<svg viewBox="0 0 20 20" xmlns="http://www.w3.org/2000/svg" width="20" height="20">
  <g stroke-width="0"/>
  <g stroke-linecap="round" stroke-linejoin="round"/>
  <path d="m13.949.161 5.856 5.807.033.03c.1.1.154.227.162.356v.069a.546.546 0 0 1-.162.356l-.029.025-5.861 5.812a.558.558 0 0 1-.785 0 .547.547 0 0 1 0-.779l5.005-4.963H.555A.552.552 0 0 1 0 6.324a.553.553 0 0 1 .555-.551h17.482L13.163.94a.547.547 0 0 1 0-.779.558.558 0 0 1 .785 0Zm5.559 6.163-5.952 5.903 5.889-5.838v-.002l-.033-.029-.034-.034h.129Z" fill="#fff"/>
</svg>
